<?xml version="1.0" standalone="no"?>
<!DOCTYPE svg PUBLIC "-//W3C//DTD SVG 20010904//EN"
 "http://www.w3.org/TR/2001/REC-SVG-20010904/DTD/svg10.dtd">
<svg version="1.0" xmlns="http://www.w3.org/2000/svg"
 width="283.000000pt" height="283.000000pt" viewBox="0 0 283.000000 283.000000"
 preserveAspectRatio="xMidYMid meet">
<metadata>
Created by potrace 1.11, written by Peter Selinger 2001-2013
</metadata>
<g transform="translate(0.000000,283.000000) scale(0.100000,-0.100000)"
fill="#000000" stroke="none">
<path d="M799 2139 c-660 -661 -689 -692 -689 -727 0 -35 29 -65 687 -722
l687 -685 604 -3 c333 -2 608 0 613 5 4 4 -74 76 -173 158 -99 83 -195 162
-212 176 -17 15 -89 75 -161 134 -71 59 -143 119 -160 134 -16 14 -79 66 -140
116 -612 504 -826 688 -813 700 7 6 67 57 133 111 66 54 122 101 125 104 3 3
127 107 275 230 149 123 275 229 281 235 7 5 31 26 54 44 23 19 48 40 54 45 6
6 36 31 66 56 30 25 64 52 75 62 32 27 228 191 266 222 19 15 102 85 186 154
84 69 150 129 147 134 -3 4 -278 8 -611 8 l-606 0 -688 -691z"/>
</g>
</svg>
