<svg xmlns="http://www.w3.org/2000/svg" viewBox="0 0 465 600"><defs><style>.cls-1{fill:none;stroke:#000;stroke-miterlimit:10;stroke-width:20px;}</style></defs><title>cv-icon-magnus-kunnas-copyright-final-revised-v5</title><g id="Layer_2" data-name="Layer 2"><g id="Layer_1-2" data-name="Layer 1"><path d="M37,590a27.07,27.07,0,0,1-27-27V37A27.07,27.07,0,0,1,37,10H269V130.16A67.91,67.91,0,0,0,336.84,198H455V563a27.07,27.07,0,0,1-27,27ZM161.51,249c-16.71,0-30.45,3-40.84,9a61.47,61.47,0,0,0-24.34,25.35c-5.28,10.13-8.73,22.31-10.25,36.19a425.89,425.89,0,0,0,0,85.48c1.52,13.78,5,25.91,10.25,36.05a58.77,58.77,0,0,0,24.55,25c10.32,5.6,24,8.44,40.63,8.44,14.65,0,27-2.41,36.55-7.16a56.37,56.37,0,0,0,23.22-20.6A79.44,79.44,0,0,0,232,417.86a189.68,189.68,0,0,0,2.65-32.3v-10h-60v10c0,10.06-.59,18.16-1.76,24.06-1.32,6.7-2.9,10.23-4,12a7.9,7.9,0,0,1-3.09,3.16,16.47,16.47,0,0,1-6.19,1.11,13.26,13.26,0,0,1-6.47-1.43c-.44-.24-1.93-1.29-3.63-5.36-1.21-2.9-2.89-8.5-4-18.78A338.11,338.11,0,0,1,144,365c0-13.78.36-25.55,1.08-35,.68-8.94,1.85-16.16,3.48-21.47s3.51-7.5,4.47-8.3c.51-.42,2.09-1.73,6-1.73,7.55,0,9.14,3.05,9.91,4.51,1.82,3.5,4,11,4,26.93v10h60V330a199.84,199.84,0,0,0-1.61-24.45,71.24,71.24,0,0,0-8.88-26.81c-5-8.71-12.47-15.91-22.29-21.42S177.67,249,161.51,249ZM272,471.48h67.36l50.21-218.55H327.39l-21.47,107-20.46-107H221.8Z"/><path d="M259,20V130.16A77.93,77.93,0,0,0,336.84,208H445V563a17.05,17.05,0,0,1-17,17H37a17.05,17.05,0,0,1-17-17V37A17.05,17.05,0,0,1,37,20H259M161.51,484.54c16.43,0,29.84-2.68,41-8.2a66.19,66.19,0,0,0,27.25-24.24,89.65,89.65,0,0,0,12.09-32.54,194.11,194.11,0,0,0,2.55-23.65l16.09,70L264,481.48h83.3L350.9,466l45.61-198.55,5.63-24.48H319.2L316,259l-9.82,48.92-9.32-48.74-3.1-16.24H209.24l2.21,9.6c-2-1.41-4.15-2.73-6.37-4-11.4-6.4-25.65-9.51-43.57-9.51-18.74,0-33.72,3.36-45.81,10.29a71.2,71.2,0,0,0-28.24,29.39C81.6,290,77.79,303.34,76.14,318.45a435.73,435.73,0,0,0,0,87.66c1.66,15,5.47,28.34,11.31,39.56a68.55,68.55,0,0,0,28.66,29.22c12,6.49,26.82,9.65,45.4,9.65m-2.28-176c.51,0,.91,0,1.23.07.85,2.27,2.46,8.3,2.46,21.37v20h70.91l3.58,15.61H164.59v20c0,11.72-.85,18.5-1.57,22.13a34.51,34.51,0,0,1-2.41,8.15,8.74,8.74,0,0,1-1.05.06l-.6,0c-.08-.19-.18-.4-.28-.64-.78-1.87-2.25-6.42-3.29-16A328,328,0,0,1,154,365c0-13.53.35-25,1.05-34.22.78-10.21,2.1-16.13,3.07-19.29a20.9,20.9,0,0,1,1.13-3M279,0H37A37.15,37.15,0,0,0,0,37V563a37.15,37.15,0,0,0,37,37H428a37.15,37.15,0,0,0,37-37V188H336.84A58,58,0,0,1,279,130.16V0ZM161.51,464.54q-22.53,0-35.87-7.23a48.71,48.71,0,0,1-20.44-20.86Q98.1,422.83,96,403.92a415.95,415.95,0,0,1,0-83.29q2.08-19,9.18-32.67a51.36,51.36,0,0,1,20.44-21.28Q139,259,161.51,259q21.41,0,33.78,6.95t18.5,17.66a61.28,61.28,0,0,1,7.64,23.08A189.8,189.8,0,0,1,223,330h-40q0-21.69-5.14-31.57T159,288.51q-7.51,0-12.38,4T139,305.61q-2.78,9-3.89,23.64T134,365a346.81,346.81,0,0,0,1.53,36.42Q137,415.33,140.23,423t8.07,10.29a23.1,23.1,0,0,0,11.26,2.65,26.59,26.59,0,0,0,9.87-1.81q4.59-1.81,7.93-7.23t5.28-15.3q2-9.85,2-26h40a179.07,179.07,0,0,1-2.5,30.59,69.35,69.35,0,0,1-9.32,25.31,46.3,46.3,0,0,1-19.18,17q-12.37,6.12-32.12,6.12Zm143.76-54.78h.84l29.47-146.83H377L331.41,461.48H280L234.36,262.93h42.83l28.08,146.83Z"/><path class="cls-1" d="M441,149H350.62C333.71,149,318,135.29,318,118.38V24.92Z"/><path d="M441,149H350.62C333.71,149,318,135.29,318,118.38V24.92Z"/></g></g></svg>